<svg width="30" height="30" viewBox="0 0 30 30" fill="none" xmlns="http://www.w3.org/2000/svg">
<circle cx="15" cy="15" r="15" fill="url(#paint0_linear_35_45)"/>
<g clip-path="url(#clip0_35_45)">
<path d="M12.0189 11.1478H11.4385V10.5674C11.4385 10.3247 11.2417 10.1279 10.999 10.1279C10.7564 10.1279 10.5596 10.3247 10.5596 10.5674V11.5873C10.5596 11.83 10.7564 12.0267 10.9991 12.0267H12.0189C12.2617 12.0267 12.4584 11.83 12.4584 11.5873C12.4584 11.3446 12.2617 11.1478 12.0189 11.1478Z" fill="white"/>
<path d="M10.999 8.08838C9.06967 8.08838 7.5 9.65805 7.5 11.5874C7.5 13.5167 9.06967 15.0864 10.999 15.0864C12.9284 15.0864 14.4981 13.5167 14.4981 11.5874C14.4981 9.65805 12.9284 8.08838 10.999 8.08838ZM10.999 14.2075C9.55427 14.2075 8.37891 13.0321 8.37891 11.5874C8.37891 10.1427 9.55427 8.96729 10.999 8.96729C12.4438 8.96729 13.6192 10.1427 13.6192 11.5874C13.6192 13.0321 12.4438 14.2075 10.999 14.2075Z" fill="white"/>
<path d="M22.4549 15.6307C22.4543 15.6295 22.4542 15.6283 22.4536 15.6272L21.0415 12.803C20.9671 12.6541 20.8149 12.56 20.6485 12.56H17.3223V11.5874C17.3223 11.3447 17.1256 11.1479 16.8829 11.1479H15.355C15.3695 11.2925 15.377 11.4391 15.377 11.5874C15.377 14.0013 13.4131 15.9653 10.999 15.9653C9.57044 15.9653 8.2996 15.2774 7.5 14.2156V20.06C7.5 20.3027 7.69676 20.4995 7.93945 20.4995H9.90662C10.1045 21.3089 10.8355 21.9116 11.7051 21.9116C12.5747 21.9116 13.3057 21.3089 13.5035 20.4995H16.4965C16.6944 21.3089 17.4254 21.9116 18.2949 21.9116C19.1645 21.9116 19.8955 21.3089 20.0934 20.4995H22.0605C22.3033 20.4995 22.5 20.3027 22.5 20.06V15.8237C22.5 15.7543 22.4835 15.689 22.4549 15.6307ZM11.7051 21.0326C11.1687 21.0326 10.7324 20.5963 10.7324 20.06C10.7324 19.5237 11.1688 19.0874 11.7051 19.0874C12.2414 19.0874 12.6778 19.5237 12.6778 20.06C12.6778 20.5963 12.2414 21.0326 11.7051 21.0326ZM18.2949 21.0326C17.7586 21.0326 17.3223 20.5963 17.3223 20.06C17.3223 19.5237 17.7586 19.0874 18.2949 19.0874C18.8312 19.0874 19.2676 19.5237 19.2676 20.06C19.2676 20.5963 18.8312 21.0326 18.2949 21.0326ZM17.3223 15.3842V13.4389H20.3769L21.3495 15.3842H17.3223Z" fill="white"/>
</g>
<defs>
<linearGradient id="paint0_linear_35_45" x1="1.94946" y1="-3.8372" x2="34.942" y2="0.175978" gradientUnits="userSpaceOnUse">
<stop stop-color="#94FC2C"/>
<stop offset="1" stop-color="#1FCB30"/>
</linearGradient>
<clipPath id="clip0_35_45">
<rect width="15" height="15" fill="white" transform="translate(7.5 7.5)"/>
</clipPath>
</defs>
</svg>
