<svg width="33" height="33" viewBox="0 0 33 33" fill="none" xmlns="http://www.w3.org/2000/svg">
<path d="M11.7604 12.8542C11.7604 12.2512 12.2512 11.7604 12.8542 11.7604C13.4572 11.7604 13.9479 12.2512 13.9479 12.8542C13.9479 13.4572 13.4572 13.9479 12.8542 13.9479C12.2512 13.9479 11.7604 13.4572 11.7604 12.8542ZM20.1458 19.0521C19.5428 19.0521 19.0521 19.5428 19.0521 20.1458C19.0521 20.7489 19.5428 21.2396 20.1458 21.2396C20.7489 21.2396 21.2396 20.7489 21.2396 20.1458C21.2396 19.5428 20.7489 19.0521 20.1458 19.0521ZM30.01 19.5837C29.9542 19.8297 30.2729 20.4714 30.4836 20.8962C30.8901 21.715 31.3509 22.6429 30.9554 23.4621C30.5543 24.293 29.5313 24.5121 28.6282 24.705C28.1714 24.803 27.4813 24.9507 27.3321 25.137C27.1808 25.3269 27.1896 26.036 27.1954 26.5053C27.2071 27.4247 27.2199 28.4675 26.5031 29.0402C25.7889 29.6104 24.7775 29.3672 23.8857 29.1532C23.4267 29.0431 22.7347 28.8758 22.512 28.9841C22.3013 29.0854 22.0056 29.7209 21.8098 30.1413C21.4186 30.9824 20.9753 31.935 20.0689 32.141C19.9548 32.1669 19.8425 32.1789 19.732 32.1789C18.9923 32.1789 18.3313 31.6382 17.6893 31.1132C17.297 30.792 16.7592 30.3524 16.4996 30.3524C16.2404 30.3524 15.7027 30.792 15.3104 31.1132C14.6071 31.6882 13.8094 32.3419 12.9311 32.1406C12.0247 31.9346 11.5811 30.9816 11.1895 30.1413C10.9941 29.7209 10.698 29.0854 10.4877 28.9837C10.2645 28.8747 9.57183 29.0428 9.11355 29.1529C8.22142 29.3676 7.21079 29.6097 6.49621 29.0399C5.77907 28.4671 5.79183 27.424 5.80386 26.5042C5.8097 26.035 5.81845 25.3262 5.66751 25.1366C5.5184 24.95 4.82824 24.8023 4.37142 24.7046C3.46798 24.5114 2.44496 24.2922 2.04392 23.461C1.64871 22.6425 2.10991 21.7143 2.51605 20.8954C2.72715 20.471 3.04579 19.829 2.99001 19.5829C2.9397 19.3623 2.39064 18.9362 2.02751 18.654C1.29215 18.0838 0.458344 17.4363 0.458344 16.5C0.458344 15.5638 1.29215 14.9166 2.02787 14.3457C2.391 14.0639 2.94006 13.6377 2.99037 13.4167C3.04616 13.1706 2.72751 12.5286 2.51678 12.1039C2.11027 11.285 1.64944 10.3571 2.04501 9.53792C2.44605 8.70704 3.46907 8.48792 4.37215 8.29469C4.82897 8.19698 5.51912 8.04933 5.66787 7.86303C5.81954 7.67308 5.81079 6.96396 5.80496 6.49474C5.79329 5.5749 5.78053 4.53219 6.4973 3.95943C7.21152 3.38922 8.22287 3.63204 9.11465 3.84641C9.57366 3.95652 10.2656 4.12313 10.4884 4.01594C10.6991 3.91422 10.9948 3.27912 11.1906 2.85839C11.5818 2.01766 12.0251 1.06501 12.9315 0.859016C13.8087 0.659953 14.6078 1.3111 15.3107 1.88641C15.7034 2.20761 16.2412 2.6473 16.5004 2.6473C16.7596 2.6473 17.2974 2.20761 17.6896 1.88678C18.3933 1.3111 19.1906 0.658495 20.0693 0.859016C20.9753 1.06501 21.419 2.01803 21.8105 2.85876C22.0063 3.27912 22.302 3.91459 22.5127 4.01631C22.7362 4.12386 23.4278 3.95688 23.8861 3.84678C24.7782 3.6324 25.7892 3.38959 26.5038 3.9598C27.2209 4.53256 27.2082 5.57527 27.1962 6.49547C27.1903 6.96469 27.1816 7.67381 27.3325 7.86303C27.4816 8.04933 28.1718 8.19735 28.6286 8.29506C29.532 8.48829 30.5551 8.70704 30.9561 9.53829C31.3513 10.3571 30.8901 11.2854 30.484 12.1042C30.2729 12.529 29.9542 13.1706 30.01 13.4167C30.0603 13.6377 30.6094 14.0639 30.9725 14.3457C31.7079 14.9166 32.5417 15.5638 32.5417 16.5C32.5417 17.4363 31.7079 18.0834 30.9721 18.6543C30.609 18.9365 30.06 19.3623 30.01 19.5837ZM12.8542 15.4063C14.2611 15.4063 15.4063 14.2615 15.4063 12.8542C15.4063 11.4469 14.2611 10.3021 12.8542 10.3021C11.4472 10.3021 10.3021 11.4469 10.3021 12.8542C10.3021 14.2615 11.4472 15.4063 12.8542 15.4063ZM22.1197 11.9114C22.4044 11.6266 22.4044 11.1651 22.1197 10.8803C21.835 10.5956 21.3734 10.5956 21.0887 10.8803L10.8803 21.0886C10.5956 21.3734 10.5956 21.835 10.8803 22.1197C11.0229 22.2622 11.2092 22.3333 11.3958 22.3333C11.5825 22.3333 11.7688 22.2622 11.9114 22.1197L22.1197 11.9114ZM22.6979 20.1458C22.6979 18.7389 21.5528 17.5938 20.1458 17.5938C18.7389 17.5938 17.5938 18.7389 17.5938 20.1458C17.5938 21.5528 18.7389 22.6979 20.1458 22.6979C21.5528 22.6979 22.6979 21.5528 22.6979 20.1458Z" fill="url(#paint0_linear_11_56)"/>
<defs>
<linearGradient id="paint0_linear_11_56" x1="2.54318" y1="-3.18877" x2="37.8027" y2="1.19953" gradientUnits="userSpaceOnUse">
<stop stop-color="#94FC2C"/>
<stop offset="1" stop-color="#1FCB30"/>
</linearGradient>
</defs>
</svg>
